<?xml version="1.0" encoding="utf-8"?>
<!-- Generator: Adobe Illustrator 24.0.3, SVG Export Plug-In . SVG Version: 6.00 Build 0)  -->
<svg version="1.1" id="USD" xmlns="http://www.w3.org/2000/svg" xmlns:xlink="http://www.w3.org/1999/xlink" x="0px" y="0px"
	 viewBox="0 0 80 80" style="enable-background:new 0 0 80 80;" xml:space="preserve">
<style type="text/css">
	.st0{fill:#B2E5F6;}
	.st1{fill:#232F3E;}
	.st2{clip-path:url(#SVGID_2_);}
</style>
<title>USD</title>
<path class="st0" d="M61.58,4.7c-10.17,0-18.42,8.25-18.42,18.42s8.25,18.42,18.42,18.42S80,33.29,80,23.12c0,0,0,0,0,0l0,0
	C79.99,12.95,71.75,4.71,61.58,4.7z"/>
<path class="st1" d="M64.63,46.94c0-1.09-0.05-2.18-0.17-3.26c-0.13-0.8-0.88-1.35-1.68-1.22c-0.74,0.12-1.27,0.77-1.24,1.52l0,0
	c0.05,0.49,0.09,1,0.11,1.5H50.4c0.02-0.78-0.02-1.57-0.1-2.35c-0.05-0.81-0.74-1.42-1.55-1.37s-1.42,0.74-1.37,1.55
	c0,0.72,0.08,1.44,0.1,2.17H33.77V33h3c0.8-0.07,1.4-0.77,1.33-1.58c-0.06-0.71-0.62-1.28-1.33-1.33h-3V17.58l1.16,0.08H35
	c0.81,0.03,1.49-0.59,1.52-1.4c0.03-0.81-0.59-1.49-1.4-1.52l0,0l0,0c-1-0.09-1.94-0.13-2.92-0.13c-11.45,0.03-22.02,6.12-27.79,16
	c-0.08,0.1-0.15,0.22-0.19,0.35c-5.65,9.89-5.65,22.03,0,31.92c0.05,0.13,0.11,0.25,0.2,0.35c9.01,15.4,28.8,20.59,44.2,11.58
	c4.79-2.8,8.78-6.79,11.58-11.58c0.08-0.11,0.15-0.22,0.2-0.35C63.17,58.02,64.63,52.53,64.63,46.94z M58.17,60.94H48.7
	c1.05-4.1,1.62-8.31,1.71-12.54h11.27c-0.21,4.38-1.41,8.66-3.51,12.51V60.94z M47.49,48.41c-0.1,4.23-0.73,8.43-1.87,12.51H33.77
	V48.41H47.49z M2.91,48.41h11.31c0.08,4.22,0.66,8.42,1.7,12.51H6.45C4.35,57.07,3.14,52.79,2.91,48.41z M6.41,33h9.47
	c-1.03,4.09-1.59,8.29-1.66,12.51H2.91C3.13,41.13,4.34,36.85,6.45,33H6.41z M17.14,48.41h13.71v12.51H19
	C17.87,56.84,17.24,52.64,17.14,48.41z M30.85,63.83V76.2c-4.42-0.87-8.36-5.6-10.88-12.37L30.85,63.83z M33.77,76.2V63.83h10.88
	C42.13,70.6,38.21,75.32,33.77,76.2z M30.85,45.49H17.14c0.1-4.22,0.73-8.42,1.86-12.49h11.85V45.49z M20,30.05
	c2.52-6.81,6.45-11.51,10.88-12.37v12.37H20z M23.07,19.05c-2.85,3.17-4.99,6.92-6.25,11H8.27C11.88,24.89,17.04,21.02,23,19
	L23.07,19.05z M8.26,63.8h8.52c1.25,4.07,3.37,7.83,6.22,11c-5.97-2-11.14-5.85-14.76-11L8.26,63.8z M41.58,74.8
	c2.85-3.17,4.99-6.92,6.25-11h8.52c-3.62,5.16-8.79,9.03-14.77,11.03V74.8z"/>
<path class="st1" d="M58.23,0.74c-10.97,0-19.87,8.9-19.87,19.87s8.9,19.87,19.87,19.87s19.87-8.9,19.87-19.87l0,0l0,0
	C78.1,9.64,69.2,0.74,58.23,0.74z M58.23,37.57c-9.39,0-17-7.61-17-17s7.61-17,17-17s17,7.61,17,17c0,0,0,0,0,0
	C75.23,29.96,67.62,37.57,58.23,37.57z"/>
<g>
	<defs>
		<path id="SVGID_1_" d="M57.18,15.69c-0.42,0.08-0.8,0.29-1.08,0.6c-0.25,0.32-0.39,0.71-0.38,1.12c0,0.37,0.14,0.72,0.38,1
			c0.29,0.31,0.67,0.52,1.08,0.63V15.69z M58.94,26.69c0.41-0.01,0.79-0.2,1.06-0.5c0.27-0.29,0.42-0.68,0.41-1.08
			c0-0.83-0.49-1.39-1.46-1.7L58.94,26.69z M57.72,33.23c-0.2,0.02-0.41-0.04-0.57-0.16c-0.13-0.17-0.19-0.39-0.17-0.6v-2.34
			c-1.48-0.1-2.91-0.52-4.21-1.24c-0.15-0.08-0.3-0.18-0.44-0.29c-0.08-0.08-0.15-0.17-0.18-0.28c-0.02-0.16-0.02-0.31,0-0.47V26
			c0-0.45,0.18-0.68,0.52-0.68c0.19,0.03,0.38,0.1,0.55,0.2c0.65,0.33,1.31,0.61,2,0.85c0.57,0.19,1.17,0.32,1.77,0.37v-3.88
			l-1-0.36c-1.2-0.38-2.29-1.05-3.18-1.94c-0.68-0.77-1.04-1.77-1-2.8c-0.05-1.4,0.48-2.76,1.47-3.76c1.05-1.03,2.43-1.65,3.9-1.75
			V10c-0.02-0.21,0.04-0.42,0.17-0.59c0.16-0.13,0.37-0.19,0.57-0.17h0.47c0.21-0.02,0.42,0.04,0.58,0.17
			c0.13,0.17,0.19,0.38,0.17,0.59v2.33c1.09,0.11,2.16,0.42,3.14,0.92c0.21,0.08,0.4,0.22,0.54,0.4c0.1,0.2,0.15,0.42,0.13,0.64
			v1.82c0,0.46-0.18,0.68-0.52,0.68c-0.27-0.07-0.54-0.17-0.79-0.3c-0.79-0.37-1.64-0.62-2.5-0.76v4l0.59,0.2
			c1.32,0.39,2.53,1.07,3.55,2c0.72,0.77,1.11,1.79,1.08,2.84c0.03,1.38-0.51,2.7-1.49,3.67c-1.07,1.01-2.46,1.61-3.93,1.68v2.35
			c0.02,0.21-0.04,0.43-0.16,0.6c-0.17,0.13-0.38,0.18-0.59,0.16H57.72z"/>
	</defs>
	<clipPath id="SVGID_2_">
		<use xlink:href="#SVGID_1_"  style="overflow:visible;"/>
	</clipPath>
	<g class="st2">
		<rect x="47.24" y="4.66" class="st1" width="21.68" height="33.13"/>
	</g>
</g>
</svg>
