<?xml version="1.0" encoding="utf-8"?>
<!-- Generator: Adobe Illustrator 24.0.3, SVG Export Plug-In . SVG Version: 6.00 Build 0)  -->
<svg version="1.1" id="Layer_1" xmlns="http://www.w3.org/2000/svg" xmlns:xlink="http://www.w3.org/1999/xlink" x="0px" y="0px"
	 viewBox="0 0 80 80" style="enable-background:new 0 0 80 80;" xml:space="preserve">
<style type="text/css">
	.st0{fill:#B2E5F6;}
	.st1{fill:#232F3E;}
	.st2{display:none;}
	.st3{display:inline;}
</style>
<g>
	<path class="st0" d="M8.53,28.12h68.4c1.05,0,1.9,0.85,1.9,1.9V78.1c0,1.05-0.85,1.9-1.9,1.9H8.53c-1.05,0-1.9-0.85-1.9-1.9V30.03
		C6.62,28.98,7.48,28.12,8.53,28.12z"/>
	<path class="st1" d="M16.14,56.21c0.41,0.35,0.81,0.71,1.23,1.05c2.6,2.13,5.52,3.84,8.65,5.06c4.01,1.57,8.28,2.37,12.59,2.35
		c1.08-0.09,2.17-0.16,3.24-0.26c1.44-0.15,2.86-0.39,4.26-0.73c2.33-0.54,4.6-1.34,6.76-2.38c1.48-0.7,2.87-1.54,4.18-2.51
		c0.12-0.09,0.23-0.2,0.33-0.33c0.19-0.29,0.12-0.68-0.17-0.87c-0.05-0.03-0.11-0.06-0.16-0.08c-0.24-0.08-0.5-0.05-0.72,0.07
		c-1.87,0.82-3.79,1.5-5.75,2.04c-2.17,0.62-4.4,1.06-6.65,1.32c-1.13,0.12-2.27,0.24-3.4,0.3c-1.79,0.09-3.58,0.05-5.37-0.12
		c-1.3-0.13-2.61-0.27-3.91-0.48c-2.98-0.48-5.9-1.28-8.72-2.38c-2.01-0.77-3.95-1.69-5.82-2.76c-0.11-0.06-0.22-0.11-0.34-0.13
		c-0.2-0.05-0.41,0.09-0.45,0.29c-0.02,0.09-0.01,0.19,0.04,0.26C15.99,56.04,16.06,56.13,16.14,56.21z"/>
	<path class="st1" d="M38.75,49.03c0.55,0,1.1,0,1.66,0c0.36,0,0.46-0.13,0.47-0.5c0-0.07,0-0.14,0-0.21c0-0.68,0-1.37,0-2.05
		c0-1.27,0-2.53,0-3.8c0-0.14,0-0.26,0.17-0.34c0.59-0.28,1.24-0.41,1.9-0.38c0.4,0.01,0.74,0.3,0.81,0.69
		c0.04,0.21,0.06,0.43,0.05,0.64c0,1.79,0,3.57,0,5.35c-0.01,0.08-0.01,0.16,0,0.23c0,0.17,0.12,0.31,0.3,0.33
		c0.11,0.01,0.22,0.01,0.33,0h1.37c0.57,0,0.67-0.1,0.67-0.67c0-1.99,0-3.98,0-5.96c0-0.14,0-0.26,0.17-0.33
		c0.6-0.27,1.24-0.4,1.9-0.37c0.36,0.01,0.67,0.25,0.76,0.6c0.05,0.2,0.09,0.41,0.09,0.62c0,1.82,0,3.63,0,5.44
		c-0.01,0.09-0.01,0.17,0,0.26c0,0.17,0.12,0.31,0.3,0.33c0.11,0.01,0.22,0.01,0.33,0h1.29c0.58,0,0.67-0.09,0.67-0.68
		c0-1.9,0-3.8,0-5.7c0-0.25,0-0.5,0-0.74c-0.05-1.21-1.06-2.17-2.28-2.16c-1.11-0.04-2.21,0.26-3.14,0.86l-0.43,0.26l-0.07-0.05
		c-0.43-0.65-1.18-1.04-1.96-1.02c-0.9-0.03-1.79,0.19-2.57,0.64L40.7,40.8l-0.13-0.42c-0.04-0.26-0.27-0.43-0.54-0.41
		c-0.41,0-0.82,0-1.23,0s-0.44,0.13-0.44,0.48c0,2.69,0,5.38,0,8.08C38.32,48.88,38.43,49.02,38.75,49.03z"/>
	<path class="st1" d="M16.6,52.88h1.63c0.31,0,0.43-0.13,0.44-0.44c0-0.07,0-0.14,0-0.21c0-1.1,0-2.21,0-3.31v-0.26h0.09h0.05
		c0.56,0.4,1.21,0.64,1.9,0.68c1.29,0.16,2.55-0.43,3.25-1.53c0.5-0.75,0.8-1.63,0.85-2.54c0.13-1.08-0.01-2.17-0.4-3.19
		c-0.3-0.85-0.96-1.55-1.79-1.9c-1.33-0.54-2.84-0.31-3.95,0.59l-0.3,0.24c0-0.14-0.08-0.25-0.1-0.35
		c-0.09-0.35-0.22-0.46-0.59-0.46h-0.97c-0.1-0.01-0.19-0.01-0.3,0c-0.19,0.01-0.33,0.16-0.33,0.34c0,0.01,0,0.02,0,0.02
		c0,0.08,0,0.16,0,0.23c0,2.05,0,4.11,0,6.17c0,1.8,0,3.6,0,5.4C16.11,52.76,16.22,52.88,16.6,52.88z M18.67,42.56
		c-0.02-0.14,0.07-0.28,0.2-0.33c0.57-0.3,1.2-0.42,1.83-0.35c0.64,0.04,1.19,0.48,1.36,1.1s0.26,1.26,0.25,1.9
		c-0.06,0.42-0.14,0.83-0.25,1.24c-0.17,0.88-1.02,1.46-1.9,1.31c-0.45-0.02-0.89-0.13-1.3-0.33c-0.13-0.05-0.21-0.19-0.2-0.33
		C18.68,45.35,18.68,43.95,18.67,42.56z"/>
	<path class="st1" d="M56.66,48.96c0.92,0.19,1.87,0.19,2.8,0c0.44-0.1,0.88-0.23,1.31-0.38c0.21-0.05,0.36-0.23,0.36-0.43
		c0-0.36,0-0.71,0-1.07s-0.16-0.35-0.41-0.3l-0.38,0.09c-0.85,0.25-1.75,0.33-2.63,0.24c-1.05-0.05-1.86-0.94-1.81-1.99
		c0-0.02,0-0.05,0.01-0.08c0.51,0,1.01,0.09,1.5,0.12c0.82,0.05,1.64-0.07,2.41-0.34c1.06-0.33,1.75-1.33,1.69-2.43
		c0.02-1.2-0.76-2.25-1.9-2.6c-0.82-0.26-1.68-0.32-2.52-0.16c-1.48,0.18-2.71,1.18-3.2,2.59c-0.47,1.25-0.55,2.62-0.21,3.91
		C53.97,47.59,55.17,48.73,56.66,48.96z M56.53,41.85c0.37-0.38,0.9-0.57,1.44-0.52c0.17,0.01,0.33,0.04,0.5,0.09
		c0.42,0.12,0.7,0.51,0.68,0.95c0.05,0.44-0.22,0.86-0.64,1.01c-0.43,0.15-0.87,0.2-1.32,0.17c-0.34,0-0.68-0.05-1.03-0.09
		c-0.09-0.02-0.16-0.03-0.25-0.05c0.04-0.57,0.26-1.11,0.64-1.54L56.53,41.85z"/>
	<path class="st1" d="M26.6,48.81c0.01,0.16,0.13,0.3,0.3,0.31h0.3h1.36c0.51,0,0.62-0.12,0.62-0.64c0-1.82,0-3.64,0-5.46
		c0-0.3,0-0.31,0.3-0.41c0.61-0.21,1.25-0.31,1.9-0.3c0.2,0,0.4,0,0.6,0s0.41-0.14,0.41-0.44c0-0.51,0-1.02,0-1.54
		c0-0.26-0.09-0.35-0.33-0.39H31.8c-0.71-0.01-1.41,0.24-1.96,0.71c-0.26,0.22-0.5,0.46-0.8,0.72l-0.2-0.82
		c-0.09-0.37-0.22-0.47-0.59-0.47h-1.02c-0.54,0-0.62,0.09-0.62,0.63c0,2.6,0,5.21,0,7.82C26.59,48.61,26.59,48.72,26.6,48.81z"/>
	<path class="st1" d="M53.2,56.2c0.12,0.02,0.23,0.02,0.34,0c1.11-0.16,2.23-0.26,3.35-0.3c0.57-0.04,1.13,0.01,1.69,0.13
		c0.64,0.17,0.79,0.43,0.75,1.08c-0.03,0.5-0.1,1-0.23,1.49c-0.32,1.14-0.71,2.27-1.16,3.36c-0.04,0.1-0.06,0.21-0.07,0.31
		c-0.02,0.13,0.06,0.25,0.19,0.27c0.05,0.01,0.09,0,0.14-0.02c0.14-0.04,0.27-0.12,0.38-0.21c0.27-0.26,0.53-0.52,0.77-0.81
		c0.83-1.06,1.43-2.28,1.77-3.59c0.26-0.85,0.39-1.75,0.37-2.64c0-0.58-0.16-0.76-0.71-0.95c-0.61-0.19-1.26-0.3-1.9-0.3
		c-0.96-0.05-1.92,0.04-2.85,0.25c-0.98,0.2-1.91,0.6-2.73,1.16c-0.12,0.09-0.22,0.19-0.3,0.31c-0.1,0.1-0.1,0.26,0,0.36
		C53.06,56.18,53.13,56.2,53.2,56.2z"/>
	<path class="st1" d="M35.66,40.02h-0.95c-0.26,0-0.51,0-0.76,0s-0.33,0.1-0.36,0.35c-0.01,0.12-0.01,0.23,0,0.35
		c0,2.53,0,5.06,0,7.6c-0.01,0.11-0.01,0.22,0,0.33c0,0.3,0.12,0.4,0.41,0.4c0.59,0,1.19,0,1.78,0h0.12
		c0.14-0.02,0.25-0.14,0.26-0.29c0.01-0.09,0.01-0.19,0-0.27c0-1.31,0-2.62,0-3.93s0-2.65,0-4.01
		C36.15,40.11,36.06,40.02,35.66,40.02z"/>
	<path class="st1" d="M34.69,38.64c0.75,0.13,1.48-0.37,1.61-1.13c0.02-0.09,0.02-0.19,0.02-0.29c0.03-0.48-0.23-0.94-0.67-1.16
		c-0.2-0.1-0.43-0.16-0.65-0.18c-0.77-0.09-1.46,0.45-1.56,1.21c-0.02,0.17-0.01,0.34,0.03,0.5C33.58,38.19,34.09,38.62,34.69,38.64
		z"/>
	<path class="st1" d="M74.79,7.6H63.86V1.42c0-0.78-0.64-1.42-1.42-1.42s-1.42,0.64-1.42,1.42v6.17H16.37V1.42
		c0-0.78-0.64-1.42-1.42-1.42s-1.43,0.64-1.43,1.42v6.17H2.59c-0.77,0-1.41,0.61-1.42,1.39v67.16c0,0.78,0.64,1.42,1.42,1.42h72.19
		c0.78,0,1.42-0.64,1.42-1.42V8.98C76.19,8.22,75.56,7.6,74.79,7.6z M73.36,74.72H4.02V25.7h69.34
		C73.36,25.7,73.36,74.72,73.36,74.72z M73.36,22.85H4.02v-12.4h9.5v6.04c0,0.78,0.64,1.42,1.42,1.42s1.42-0.64,1.42-1.42v-6.04H61
		v6.04c0,0.78,0.64,1.42,1.42,1.42s1.42-0.64,1.42-1.42v-6.04h9.5v12.4C73.34,22.85,73.36,22.85,73.36,22.85z"/>
</g>
<g id="Pound" class="st2">
	<g class="st3">
		<g>
			<g>
				<defs>
					<path id="SVGID_1_" d="M541.72-254.63h0.68c4.01-0.01,18.46-0.15,18.49,0.75c0.3,0.07,0.59,0.24,0.81,0.49
						c0.59,0.66,0.54,1.68-0.12,2.27c-3.66,3.3-5.83,7.42-6.52,12.42c-0.09,0.68-0.59,1.19-1.22,1.34
						c-0.09,0.06-0.18,0.12-0.28,0.16c-3.63,1.63-7.5,2.45-11.5,2.45s-7.87-0.82-11.5-2.45c-0.04-0.02-0.08-0.06-0.13-0.13
						c-0.71-0.09-1.29-0.64-1.39-1.37c-0.69-5-2.86-9.11-6.52-12.42c-0.66-0.59-0.71-1.61-0.12-2.27c0.49-0.55,1.27-0.68,1.9-0.37
						C525.18-254.8,537.91-254.64,541.72-254.63z"/>
				</defs>
				<clipPath id="SVGID_2_">
					<use xlink:href="#SVGID_1_"  style="overflow:visible;"/>
				</clipPath>
			</g>
		</g>
		<g>
			<g>
				<defs>
					<ellipse id="SVGID_3_" cx="542.24" cy="-268.56" rx="26.65" ry="26.76"/>
				</defs>
				<clipPath id="SVGID_4_">
					<use xlink:href="#SVGID_3_"  style="overflow:visible;"/>
				</clipPath>
			</g>
		</g>
		<g>
			<g>
				<defs>
					<path id="SVGID_5_" d="M539.36-243.26c-15.58,0-28.25-12.73-28.25-28.37S523.78-300,539.36-300s28.25,12.73,28.25,28.37
						S554.93-243.26,539.36-243.26z M539.36-296.79c-13.81,0-25.05,11.29-25.05,25.16s11.24,25.16,25.05,25.16
						s25.05-11.29,25.05-25.16S553.17-296.79,539.36-296.79z"/>
				</defs>
				<clipPath id="SVGID_6_">
					<use xlink:href="#SVGID_5_"  style="overflow:visible;"/>
				</clipPath>
			</g>
		</g>
		<g>
			<g>
				<defs>
					<path id="SVGID_7_" d="M539.36-234.78c-4,0-7.87-0.82-11.5-2.45c-0.81-0.36-1.17-1.31-0.81-2.12s1.3-1.17,2.11-0.81
						c3.21,1.44,6.64,2.17,10.19,2.17s6.98-0.73,10.19-2.17c0.81-0.36,1.75,0,2.11,0.81s0,1.76-0.81,2.12
						C547.23-235.6,543.36-234.78,539.36-234.78"/>
				</defs>
				<clipPath id="SVGID_8_">
					<use xlink:href="#SVGID_7_"  style="overflow:visible;"/>
				</clipPath>
			</g>
		</g>
		<g>
			<g>
				<defs>
					<path id="SVGID_9_" d="M539.36-227.39c-3.43,0-6.74-0.82-9.85-2.45c-0.69-0.36-1-1.31-0.69-2.12s1.12-1.18,1.81-0.81
						c2.75,1.44,5.69,2.17,8.73,2.17s5.98-0.73,8.73-2.17c0.69-0.36,1.5,0,1.81,0.81s0,1.76-0.69,2.12
						C546.1-228.21,542.78-227.39,539.36-227.39"/>
				</defs>
				<clipPath id="SVGID_10_">
					<use xlink:href="#SVGID_9_"  style="overflow:visible;"/>
				</clipPath>
			</g>
		</g>
		<g>
			<g>
				<defs>
					<path id="SVGID_11_" d="M539.36-220c-2.38,0-4.75-0.3-7.06-0.9c-0.86-0.22-1.37-1.1-1.15-1.96s1.09-1.37,1.95-1.15
						c4.1,1.06,8.43,1.06,12.53,0c0.85-0.22,1.73,0.3,1.95,1.15c0.22,0.86-0.29,1.73-1.15,1.96C544.11-220.3,541.73-220,539.36-220"
						/>
				</defs>
				<clipPath id="SVGID_12_">
					<use xlink:href="#SVGID_11_"  style="overflow:visible;"/>
				</clipPath>
			</g>
		</g>
		<g>
			<g>
				<defs>
					<path id="SVGID_13_" d="M529.39-239.11c-0.84-5.79-3.5-10.65-7.95-14.49c-0.69-0.6-1.76-0.54-2.38,0.12
						c-0.62,0.67-0.56,1.69,0.13,2.29c3.85,3.33,6.13,7.49,6.86,12.53c0.13,0.89,0.98,1.5,1.9,1.38S529.52-238.22,529.39-239.11z"/>
				</defs>
				<clipPath id="SVGID_14_">
					<use xlink:href="#SVGID_13_"  style="overflow:visible;"/>
				</clipPath>
			</g>
		</g>
		<g>
			<g>
				<defs>
					<path id="SVGID_15_" d="M548.57-239.11c0.84-5.79,3.5-10.65,7.95-14.49c0.69-0.6,1.76-0.54,2.38,0.12
						c0.62,0.67,0.56,1.69-0.13,2.29c-3.85,3.33-6.13,7.49-6.86,12.53c-0.13,0.89-0.98,1.5-1.9,1.38
						C549.08-237.41,548.44-238.22,548.57-239.11z"/>
				</defs>
				<clipPath id="SVGID_16_">
					<use xlink:href="#SVGID_15_"  style="overflow:visible;"/>
				</clipPath>
			</g>
		</g>
	</g>
</g>
<g id="Yen" class="st2">
	<g class="st3">
		<g>
			<g>
				<defs>
					<path id="SVGID_17_" d="M541.72-254.63h0.68c4.01-0.01,18.46-0.15,18.49,0.75c0.3,0.07,0.59,0.24,0.81,0.49
						c0.59,0.66,0.54,1.68-0.12,2.27c-3.66,3.3-5.83,7.42-6.52,12.42c-0.09,0.68-0.59,1.19-1.22,1.34
						c-0.09,0.06-0.18,0.12-0.28,0.16c-3.63,1.63-7.5,2.45-11.5,2.45s-7.87-0.82-11.5-2.45c-0.04-0.02-0.08-0.06-0.13-0.13
						c-0.71-0.09-1.29-0.64-1.39-1.37c-0.69-5-2.86-9.11-6.52-12.42c-0.66-0.59-0.71-1.61-0.12-2.27c0.49-0.55,1.27-0.68,1.9-0.37
						C525.18-254.8,537.91-254.64,541.72-254.63z"/>
				</defs>
				<clipPath id="SVGID_18_">
					<use xlink:href="#SVGID_17_"  style="overflow:visible;"/>
				</clipPath>
			</g>
		</g>
		<g>
			<g>
				<defs>
					<ellipse id="SVGID_19_" cx="542.24" cy="-268.56" rx="26.65" ry="26.76"/>
				</defs>
				<clipPath id="SVGID_20_">
					<use xlink:href="#SVGID_19_"  style="overflow:visible;"/>
				</clipPath>
			</g>
		</g>
		<g>
			<g>
				<defs>
					<path id="SVGID_21_" d="M539.36-243.26c-15.58,0-28.25-12.73-28.25-28.37S523.78-300,539.36-300s28.25,12.73,28.25,28.37
						S554.93-243.26,539.36-243.26z M539.36-296.79c-13.81,0-25.05,11.29-25.05,25.16s11.24,25.16,25.05,25.16
						s25.05-11.29,25.05-25.16S553.17-296.79,539.36-296.79z"/>
				</defs>
				<clipPath id="SVGID_22_">
					<use xlink:href="#SVGID_21_"  style="overflow:visible;"/>
				</clipPath>
			</g>
		</g>
		<g>
			<g>
				<defs>
					<path id="SVGID_23_" d="M539.36-234.78c-4,0-7.87-0.82-11.5-2.45c-0.81-0.36-1.17-1.31-0.81-2.12s1.3-1.17,2.11-0.81
						c3.21,1.44,6.64,2.17,10.19,2.17s6.98-0.73,10.19-2.17c0.81-0.36,1.75,0,2.11,0.81s0,1.76-0.81,2.12
						C547.23-235.6,543.36-234.78,539.36-234.78"/>
				</defs>
				<clipPath id="SVGID_24_">
					<use xlink:href="#SVGID_23_"  style="overflow:visible;"/>
				</clipPath>
			</g>
		</g>
		<g>
			<g>
				<defs>
					<path id="SVGID_25_" d="M539.36-227.39c-3.43,0-6.74-0.82-9.85-2.45c-0.69-0.36-1-1.31-0.69-2.12s1.12-1.18,1.81-0.81
						c2.75,1.44,5.69,2.17,8.73,2.17s5.98-0.73,8.73-2.17c0.69-0.36,1.5,0,1.81,0.81s0,1.76-0.69,2.12
						C546.1-228.21,542.78-227.39,539.36-227.39"/>
				</defs>
				<clipPath id="SVGID_26_">
					<use xlink:href="#SVGID_25_"  style="overflow:visible;"/>
				</clipPath>
			</g>
		</g>
		<g>
			<g>
				<defs>
					<path id="SVGID_27_" d="M539.36-220c-2.38,0-4.75-0.3-7.06-0.9c-0.86-0.22-1.37-1.1-1.15-1.96s1.09-1.37,1.95-1.15
						c4.1,1.06,8.43,1.06,12.53,0c0.85-0.22,1.73,0.3,1.95,1.15c0.22,0.86-0.29,1.73-1.15,1.96C544.11-220.3,541.73-220,539.36-220"
						/>
				</defs>
				<clipPath id="SVGID_28_">
					<use xlink:href="#SVGID_27_"  style="overflow:visible;"/>
				</clipPath>
			</g>
		</g>
		<g>
			<g>
				<defs>
					<path id="SVGID_29_" d="M529.39-239.11c-0.84-5.79-3.5-10.65-7.95-14.49c-0.69-0.6-1.76-0.54-2.38,0.12
						c-0.62,0.67-0.56,1.69,0.13,2.29c3.85,3.33,6.13,7.49,6.86,12.53c0.13,0.89,0.98,1.5,1.9,1.38S529.52-238.22,529.39-239.11z"/>
				</defs>
				<clipPath id="SVGID_30_">
					<use xlink:href="#SVGID_29_"  style="overflow:visible;"/>
				</clipPath>
			</g>
		</g>
		<g>
			<g>
				<defs>
					<path id="SVGID_31_" d="M548.57-239.11c0.84-5.79,3.5-10.65,7.95-14.49c0.69-0.6,1.76-0.54,2.38,0.12
						c0.62,0.67,0.56,1.69-0.13,2.29c-3.85,3.33-6.13,7.49-6.86,12.53c-0.13,0.89-0.98,1.5-1.9,1.38
						C549.08-237.41,548.44-238.22,548.57-239.11z"/>
				</defs>
				<clipPath id="SVGID_32_">
					<use xlink:href="#SVGID_31_"  style="overflow:visible;"/>
				</clipPath>
			</g>
		</g>
	</g>
</g>
<g id="Euro" class="st2">
	<g class="st3">
		<g>
			<g>
				<defs>
					<path id="SVGID_33_" d="M541.72-254.63h0.68c4.01-0.01,18.46-0.15,18.49,0.75c0.3,0.07,0.59,0.24,0.81,0.49
						c0.59,0.66,0.54,1.68-0.12,2.27c-3.66,3.3-5.83,7.42-6.52,12.42c-0.09,0.68-0.59,1.19-1.22,1.34
						c-0.09,0.06-0.18,0.12-0.28,0.16c-3.63,1.63-7.5,2.45-11.5,2.45s-7.87-0.82-11.5-2.45c-0.04-0.02-0.08-0.06-0.13-0.13
						c-0.71-0.09-1.29-0.64-1.39-1.37c-0.69-5-2.86-9.11-6.52-12.42c-0.66-0.59-0.71-1.61-0.12-2.27c0.49-0.55,1.27-0.68,1.9-0.37
						C525.18-254.8,537.91-254.64,541.72-254.63z"/>
				</defs>
				<clipPath id="SVGID_34_">
					<use xlink:href="#SVGID_33_"  style="overflow:visible;"/>
				</clipPath>
			</g>
		</g>
		<g>
			<g>
				<defs>
					<ellipse id="SVGID_35_" cx="542.24" cy="-268.56" rx="26.65" ry="26.76"/>
				</defs>
				<clipPath id="SVGID_36_">
					<use xlink:href="#SVGID_35_"  style="overflow:visible;"/>
				</clipPath>
			</g>
		</g>
		<g>
			<g>
				<defs>
					<path id="SVGID_37_" d="M539.36-243.26c-15.58,0-28.25-12.73-28.25-28.37S523.78-300,539.36-300s28.25,12.73,28.25,28.37
						S554.93-243.26,539.36-243.26z M539.36-296.79c-13.81,0-25.05,11.29-25.05,25.16s11.24,25.16,25.05,25.16
						s25.05-11.29,25.05-25.16S553.17-296.79,539.36-296.79z"/>
				</defs>
				<clipPath id="SVGID_38_">
					<use xlink:href="#SVGID_37_"  style="overflow:visible;"/>
				</clipPath>
			</g>
		</g>
		<g>
			<g>
				<defs>
					<path id="SVGID_39_" d="M539.36-234.78c-4,0-7.87-0.82-11.5-2.45c-0.81-0.36-1.17-1.31-0.81-2.12s1.3-1.17,2.11-0.81
						c3.21,1.44,6.64,2.17,10.19,2.17s6.98-0.73,10.19-2.17c0.81-0.36,1.75,0,2.11,0.81s0,1.76-0.81,2.12
						C547.23-235.6,543.36-234.78,539.36-234.78"/>
				</defs>
				<clipPath id="SVGID_40_">
					<use xlink:href="#SVGID_39_"  style="overflow:visible;"/>
				</clipPath>
			</g>
		</g>
		<g>
			<g>
				<defs>
					<path id="SVGID_41_" d="M539.36-227.39c-3.43,0-6.74-0.82-9.85-2.45c-0.69-0.36-1-1.31-0.69-2.12s1.12-1.18,1.81-0.81
						c2.75,1.44,5.69,2.17,8.73,2.17s5.98-0.73,8.73-2.17c0.69-0.36,1.5,0,1.81,0.81s0,1.76-0.69,2.12
						C546.1-228.21,542.78-227.39,539.36-227.39"/>
				</defs>
				<clipPath id="SVGID_42_">
					<use xlink:href="#SVGID_41_"  style="overflow:visible;"/>
				</clipPath>
			</g>
		</g>
		<g>
			<g>
				<defs>
					<path id="SVGID_43_" d="M539.36-220c-2.38,0-4.75-0.3-7.06-0.9c-0.86-0.22-1.37-1.1-1.15-1.96s1.09-1.37,1.95-1.15
						c4.1,1.06,8.43,1.06,12.53,0c0.85-0.22,1.73,0.3,1.95,1.15c0.22,0.86-0.29,1.73-1.15,1.96C544.11-220.3,541.73-220,539.36-220"
						/>
				</defs>
				<clipPath id="SVGID_44_">
					<use xlink:href="#SVGID_43_"  style="overflow:visible;"/>
				</clipPath>
			</g>
		</g>
		<g>
			<g>
				<defs>
					<path id="SVGID_45_" d="M529.39-239.11c-0.84-5.79-3.5-10.65-7.95-14.49c-0.69-0.6-1.76-0.54-2.38,0.12
						c-0.62,0.67-0.56,1.69,0.13,2.29c3.85,3.33,6.13,7.49,6.86,12.53c0.13,0.89,0.98,1.5,1.9,1.38S529.52-238.22,529.39-239.11z"/>
				</defs>
				<clipPath id="SVGID_46_">
					<use xlink:href="#SVGID_45_"  style="overflow:visible;"/>
				</clipPath>
			</g>
		</g>
		<g>
			<g>
				<defs>
					<path id="SVGID_47_" d="M548.57-239.11c0.84-5.79,3.5-10.65,7.95-14.49c0.69-0.6,1.76-0.54,2.38,0.12
						c0.62,0.67,0.56,1.69-0.13,2.29c-3.85,3.33-6.13,7.49-6.86,12.53c-0.13,0.89-0.98,1.5-1.9,1.38
						C549.08-237.41,548.44-238.22,548.57-239.11z"/>
				</defs>
				<clipPath id="SVGID_48_">
					<use xlink:href="#SVGID_47_"  style="overflow:visible;"/>
				</clipPath>
			</g>
		</g>
	</g>
</g>
<g id="Rupee" class="st2">
	<g class="st3">
		<g>
			<g>
				<defs>
					<path id="SVGID_49_" d="M541.72-254.63h0.68c4.01-0.01,18.46-0.15,18.49,0.75c0.3,0.07,0.59,0.24,0.81,0.49
						c0.59,0.66,0.54,1.68-0.12,2.27c-3.66,3.3-5.83,7.42-6.52,12.42c-0.09,0.68-0.59,1.19-1.22,1.34
						c-0.09,0.06-0.18,0.12-0.28,0.16c-3.63,1.63-7.5,2.45-11.5,2.45s-7.87-0.82-11.5-2.45c-0.04-0.02-0.08-0.06-0.13-0.13
						c-0.71-0.09-1.29-0.64-1.39-1.37c-0.69-5-2.86-9.11-6.52-12.42c-0.66-0.59-0.71-1.61-0.12-2.27c0.49-0.55,1.27-0.68,1.9-0.37
						C525.18-254.8,537.91-254.64,541.72-254.63z"/>
				</defs>
				<clipPath id="SVGID_50_">
					<use xlink:href="#SVGID_49_"  style="overflow:visible;"/>
				</clipPath>
			</g>
		</g>
		<g>
			<g>
				<defs>
					<ellipse id="SVGID_51_" cx="542.24" cy="-268.56" rx="26.65" ry="26.76"/>
				</defs>
				<clipPath id="SVGID_52_">
					<use xlink:href="#SVGID_51_"  style="overflow:visible;"/>
				</clipPath>
			</g>
		</g>
		<g>
			<g>
				<defs>
					<path id="SVGID_53_" d="M539.36-243.26c-15.58,0-28.25-12.73-28.25-28.37S523.78-300,539.36-300s28.25,12.73,28.25,28.37
						S554.93-243.26,539.36-243.26z M539.36-296.79c-13.81,0-25.05,11.29-25.05,25.16s11.24,25.16,25.05,25.16
						s25.05-11.29,25.05-25.16S553.17-296.79,539.36-296.79z"/>
				</defs>
				<clipPath id="SVGID_54_">
					<use xlink:href="#SVGID_53_"  style="overflow:visible;"/>
				</clipPath>
			</g>
		</g>
		<g>
			<g>
				<defs>
					<path id="SVGID_55_" d="M539.36-234.78c-4,0-7.87-0.82-11.5-2.45c-0.81-0.36-1.17-1.31-0.81-2.12s1.3-1.17,2.11-0.81
						c3.21,1.44,6.64,2.17,10.19,2.17s6.98-0.73,10.19-2.17c0.81-0.36,1.75,0,2.11,0.81s0,1.76-0.81,2.12
						C547.23-235.6,543.36-234.78,539.36-234.78"/>
				</defs>
				<clipPath id="SVGID_56_">
					<use xlink:href="#SVGID_55_"  style="overflow:visible;"/>
				</clipPath>
			</g>
		</g>
		<g>
			<g>
				<defs>
					<path id="SVGID_57_" d="M539.36-227.39c-3.43,0-6.74-0.82-9.85-2.45c-0.69-0.36-1-1.31-0.69-2.12s1.12-1.18,1.81-0.81
						c2.75,1.44,5.69,2.17,8.73,2.17s5.98-0.73,8.73-2.17c0.69-0.36,1.5,0,1.81,0.81s0,1.76-0.69,2.12
						C546.1-228.21,542.78-227.39,539.36-227.39"/>
				</defs>
				<clipPath id="SVGID_58_">
					<use xlink:href="#SVGID_57_"  style="overflow:visible;"/>
				</clipPath>
			</g>
		</g>
		<g>
			<g>
				<defs>
					<path id="SVGID_59_" d="M539.36-220c-2.38,0-4.75-0.3-7.06-0.9c-0.86-0.22-1.37-1.1-1.15-1.96s1.09-1.37,1.95-1.15
						c4.1,1.06,8.43,1.06,12.53,0c0.85-0.22,1.73,0.3,1.95,1.15c0.22,0.86-0.29,1.73-1.15,1.96C544.11-220.3,541.73-220,539.36-220"
						/>
				</defs>
				<clipPath id="SVGID_60_">
					<use xlink:href="#SVGID_59_"  style="overflow:visible;"/>
				</clipPath>
			</g>
		</g>
		<g>
			<g>
				<defs>
					<path id="SVGID_61_" d="M529.39-239.11c-0.84-5.79-3.5-10.65-7.95-14.49c-0.69-0.6-1.76-0.54-2.38,0.12
						c-0.62,0.67-0.56,1.69,0.13,2.29c3.85,3.33,6.13,7.49,6.86,12.53c0.13,0.89,0.98,1.5,1.9,1.38S529.52-238.22,529.39-239.11z"/>
				</defs>
				<clipPath id="SVGID_62_">
					<use xlink:href="#SVGID_61_"  style="overflow:visible;"/>
				</clipPath>
			</g>
		</g>
		<g>
			<g>
				<defs>
					<path id="SVGID_63_" d="M548.57-239.11c0.84-5.79,3.5-10.65,7.95-14.49c0.69-0.6,1.76-0.54,2.38,0.12
						c0.62,0.67,0.56,1.69-0.13,2.29c-3.85,3.33-6.13,7.49-6.86,12.53c-0.13,0.89-0.98,1.5-1.9,1.38
						C549.08-237.41,548.44-238.22,548.57-239.11z"/>
				</defs>
				<clipPath id="SVGID_64_">
					<use xlink:href="#SVGID_63_"  style="overflow:visible;"/>
				</clipPath>
			</g>
		</g>
	</g>
</g>
</svg>
